<?xml version="1.0" encoding="UTF-8"?> <svg xmlns="http://www.w3.org/2000/svg" width="7.23in" height="2.08in" viewBox="0 0 520.32 149.56"><title>PEP LOGO_RGB</title><path d="M70.18,131.53A10.68,10.68,0,1,1,59.5,120.9,10.51,10.51,0,0,1,70.18,131.53Zm-16.53,0a5.86,5.86,0,1,0,5.85-6A5.94,5.94,0,0,0,53.65,131.53Z" fill="#231f20"></path><path d="M80.76,127.1c-.49-1-.18-2.23-2.38-2.28a1.59,1.59,0,0,0-1.63,1.41c0,2.18,2,2.08,4.42,3.15s4.35,2.9,4.35,6A6.53,6.53,0,0,1,78.69,142c-3.38,0-7.26-1.86-7.26-7.13l4.16,0c.23,1.63.87,2.93,2.8,2.93A2,2,0,0,0,80.62,136c0-1.06-.14-1.5-.7-1.91l-4.1-1.73a5.83,5.83,0,0,1-3.41-5.72,6,6,0,0,1,6.19-5.75c2.56,0,6.78,2,5.74,6.11Z" fill="#231f20"></path><path d="M136.11,133.93c0,3.43,4,4,5.78,4a6.12,6.12,0,0,0,4.46-2.27l4.71.08a9.68,9.68,0,0,1-9.22,6.59c-6.81,0-11-4.62-11-10.53a10.64,10.64,0,1,1,21.28-.13c0,2.24-.32,2.21-.32,2.21Zm10.69-4c0-2.51-2.35-4.44-5.3-4.44s-5.47,2.26-5.47,4.44Z" fill="#231f20"></path><path d="M36.1,120.4a10.73,10.73,0,0,0-10.69,10l0,2.66v15.1h4.78v-8.13A10.73,10.73,0,1,0,36.1,120.4Zm0,16.9a6.19,6.19,0,0,1-6-4.57,6,6,0,0,1-.25-1.64c0-.23,0-.44.06-.66a6.21,6.21,0,1,1,6.16,6.87Z" fill="#231f20"></path><rect x="87.59" y="121.55" width="4.98" height="19.97" fill="#231f20"></rect><polygon points="104.23 121.54 101.79 121.54 101.79 115.14 96.81 115.14 96.81 121.54 94.37 121.54 94.37 125.95 96.81 125.95 96.81 141.52 101.79 141.52 101.79 125.95 104.23 125.95 104.23 121.54" fill="#231f20"></polygon><rect x="87.59" y="115.14" width="4.98" height="4.5" fill="#231f20"></rect><rect x="106.24" y="121.55" width="4.98" height="19.97" fill="#231f20"></rect><polygon points="126.69 121.55 121.96 133.86 117.22 121.55 112.24 121.55 119.47 140.33 119.92 141.52 123.99 141.52 124.45 140.33 131.68 121.55 126.69 121.55" fill="#231f20"></polygon><rect x="106.24" y="115.14" width="4.98" height="4.5" fill="#231f20"></rect><path d="M342.77,131.53a10.68,10.68,0,1,1-10.68-10.63A10.51,10.51,0,0,1,342.77,131.53Zm-16.53,0a5.86,5.86,0,1,0,5.85-6A5.94,5.94,0,0,0,326.24,131.53Z" fill="#231f20"></path><path d="M194.24,133.93c0,3.43,4,4,5.77,4a6.16,6.16,0,0,0,4.47-2.27l4.7.08a9.67,9.67,0,0,1-9.21,6.59c-6.82,0-11-4.62-11-10.53a10.65,10.65,0,1,1,21.29-.13c0,2.24-.33,2.21-.33,2.21Zm10.68-4c0-2.51-2.34-4.44-5.3-4.44s-5.47,2.26-5.47,4.44Z" fill="#231f20"></path><path d="M279.3,131.69A10.73,10.73,0,0,0,290,142.42a11.11,11.11,0,0,0,6-2.2v1.34h4.78v-7.91l0-3.38c-.36-5.59-5-9.3-10.69-9.3A10.73,10.73,0,0,0,279.3,131.69Zm4.49,0a6.2,6.2,0,0,1,12.37-.66,4.93,4.93,0,0,1,.07.66,5.92,5.92,0,0,1-.25,1.64,6.2,6.2,0,0,1-12.19-1.64Z" fill="#231f20"></path><path d="M228.33,115.14v7.35a10.85,10.85,0,0,0-5.7-1.59,10.64,10.64,0,1,0,0,21.27,10.85,10.85,0,0,0,5.7-1.59v.94h5V115.14Zm0,17.69a6,6,0,1,1,0-2.61,6.34,6.34,0,0,1,.15,1.31A6.16,6.16,0,0,1,228.33,132.83Z" fill="#231f20"></path><polygon points="312.35 121.54 309.92 121.54 309.92 115.14 304.94 115.14 304.94 121.54 302.49 121.54 302.49 125.95 304.94 125.95 304.94 141.52 309.92 141.52 309.92 125.95 312.35 125.95 312.35 121.54" fill="#231f20"></polygon><rect x="314.36" y="121.55" width="4.98" height="19.97" fill="#231f20"></rect><rect x="314.36" y="115.14" width="4.98" height="4.5" fill="#231f20"></rect><path d="M267.9,137.49a6,6,0,0,1,0-11.92,5.81,5.81,0,0,1,5.08,3.06h5.2a10.62,10.62,0,1,0-.12,6.23h-5.33A5.79,5.79,0,0,1,267.9,137.49Z" fill="#231f20"></path><path d="M358.21,121.43a7.45,7.45,0,0,0-2.62-.55,7.83,7.83,0,0,0-4.72,1.8c-.33.22-.82.41-.82,0v-1.06h-4.44v19.91h4.72l.09-11.11c0-1.18.56-4.72,3.91-4.72a3.85,3.85,0,0,1,3.88,3c0,.26,0,12.73,0,12.73h5V128.76A7.54,7.54,0,0,0,358.21,121.43Z" fill="#231f20"></path><path d="M241.66,141.76a8.21,8.21,0,0,0,2.77.55,7.78,7.78,0,0,0,4.72-1.81c.33-.23.82-.41.82,0v1h4.44v-20h-4.72l-.09,11.2c0,1.19-.55,4.85-3.91,4.85a3.89,3.89,0,0,1-3.87-3.16c0-.26,0-12.82,0-12.82h-5v12.82A7.49,7.49,0,0,0,241.66,141.76Z" fill="#231f20"></path><path d="M433,131.53a10.68,10.68,0,1,1-10.68-10.63A10.51,10.51,0,0,1,433,131.53Zm-16.53,0a5.86,5.86,0,1,0,5.85-6A5.94,5.94,0,0,0,416.46,131.53Z" fill="#231f20"></path><path d="M497,123s.2.45.59,0a4.89,4.89,0,0,1,3.8-2.09c2.56,0,4.27,1.42,5.53,3.64a6.82,6.82,0,0,1,5.84-3.64c4.75,0,7.6,4.11,7.6,8.65v12h-4.7V130.21c0-2.58-.77-4.29-3.49-4.29-2.47,0-3.39,2.7-3.39,5.78v9.85H504V130.93c0-2.61-.49-5-3.61-5-2.66,0-3.44,2.66-3.44,5.78v9.85h-4.7v-20H497Z" fill="#231f20"></path><path d="M388.59,120.4a10.73,10.73,0,0,0-10.7,10l0,2.66v15.1h4.78v-8.13a10.73,10.73,0,1,0,5.95-19.66Zm0,16.9a6.19,6.19,0,0,1-6-4.57,6,6,0,0,1-.25-1.64c0-.23,0-.44.06-.66a6.21,6.21,0,1,1,6.16,6.87Z" fill="#231f20"></path><path d="M467.76,131.69a10.72,10.72,0,0,0,10.73,10.73,11.14,11.14,0,0,0,5.95-2.2v1.34h4.77v-7.91l0-3.38c-.36-5.59-5-9.3-10.69-9.3A10.72,10.72,0,0,0,467.76,131.69Zm4.49,0a6.2,6.2,0,0,1,12.37-.66c0,.22.07.44.07.66a6.31,6.31,0,0,1-.25,1.64,6.2,6.2,0,0,1-12.19-1.64Z" fill="#231f20"></path><path d="M406.25,123.53v-2h-4.86v20h4.86V129.08a5.7,5.7,0,0,1,4.34-3.15v-4.32C408.68,121,407.36,122.2,406.25,123.53Z" fill="#231f20"></path><path d="M463.45,123.53v-2h-4.86v20h4.86V129.08a5.7,5.7,0,0,1,4.34-3.15v-4.32C465.88,121,464.56,122.2,463.45,123.53Z" fill="#231f20"></path><path d="M450.81,121.53v1h0a10.85,10.85,0,0,0-5.7-1.59,10.51,10.51,0,0,0-10.68,10.63,10.72,10.72,0,0,0,.52,3.34A10.37,10.37,0,0,0,438.6,140a10.73,10.73,0,0,0,6.51,2.15,10.85,10.85,0,0,0,5.7-1.6v.1a6.15,6.15,0,0,1-1.36,2.31,6.42,6.42,0,0,1-9.31,0h-5.2a10.8,10.8,0,0,0,10.16,6.59,11.32,11.32,0,0,0,5.93-1.64,10.51,10.51,0,0,0,4.22-4.95,10.81,10.81,0,0,0,.4-1.51c0-.09.12-2.23.14-2.32v-7.61h0v-10Zm-2.12,14.69a5.66,5.66,0,0,1-7.17,0,6,6,0,0,1-1.28-1.37,6.19,6.19,0,0,1-.76-1.77,6,6,0,0,1-.23-1.53h0a6,6,0,0,1,.23-1.53l.09-.28a5.88,5.88,0,0,1,1.95-2.85,5.63,5.63,0,0,1,7.17,0,6.07,6.07,0,0,1,2,2.87.75.75,0,0,0,.05.16c0,.12.08.23.11.35a6.24,6.24,0,0,1,.15,1.3h0a6.16,6.16,0,0,1-.15,1.3c0,.12-.08.24-.11.36a6.13,6.13,0,0,1-1,2A5.86,5.86,0,0,1,448.69,136.22Z" fill="#231f20"></path><path d="M134.74,20.52c-4.08-.9-8.53.05-11.58,1-.31-.09-.52-.22-.49-.43.12-.7.12-2.58.24-2.93s-.12-.35.58-.35a19.54,19.54,0,0,0,12.54-4c8.29-6,6.8-10.55,6.8-10.55s-6.33-.12-10.32,2-8.2,7.15-8.2,7.15a46.15,46.15,0,0,1,2-5.51c1.68-4.48,3.52-4.22,2.58-5.86-.31-.54-.47.24-1-.47S124.66,0,124.66,0a27.9,27.9,0,0,0-4.22,6.91,95.76,95.76,0,0,0-2.81,9.49S116.69,13,111.19,8A16.39,16.39,0,0,0,98.88,3.87c-.58,3.29,1.76,8.21,6.56,12.31a18.42,18.42,0,0,0,11.25,4.1c.94.12.71.35.71,1.17a1.56,1.56,0,0,1-.42.92c-6.54-1.58-12.87-2.38-18.76.39C91.61,25.87,81.5,34.82,81.5,53.48s15.56,39.66,30.72,39.66A14.2,14.2,0,0,0,118.05,92s5.06,2.72,9,2.72,18.28-5.06,20.61-19.06L123.89,57l27.61-2.72C156.75,33.7,142.24,22.16,134.74,20.52Z" fill="#231f20"></path><path d="M18,41.26a38.45,38.45,0,0,1,24.38-8.69c18.51,0,34.44,15.19,34.44,34.31,0,20-15,36.25-36.09,36.25-3.59,0-15.15-1.46-22.33-9.37L18,141.87H0V31.92H18Z" fill="#231f20"></path><path d="M5.53,37.46v98.88h6.93c0-6.44.4-49,.4-49L16.91,84,22.44,90C28,96.21,37.73,97.6,40.68,97.6c17.42,0,30.56-13.21,30.56-30.72,0-15.59-13.24-28.77-28.91-28.77a33.41,33.41,0,0,0-20.66,7.24l-5.83,6.84-3.41-2.81,0-8.12v-3.8Z" fill="#ffd200"></path><path d="M178.54,41.26a38.45,38.45,0,0,1,24.38-8.69c18.51,0,34.45,15.19,34.45,34.31,0,20-15,36.25-36.09,36.25-3.6,0-15.16-1.46-22.34-9.37l-.4,48.11H160.59V31.92h17.95Z" fill="#231f20"></path><path d="M166.13,37.46v98.88h6.93c.05-6.44.4-49,.4-49l4-3.4L183,90c5.6,6.17,15.29,7.56,18.24,7.56,17.42,0,30.55-13.21,30.55-30.72,0-15.59-13.24-28.77-28.91-28.77a33.36,33.36,0,0,0-20.65,7.24l-5.83,6.84L173,49.38l0-8.12v-3.8Z" fill="#005fae"></path><path d="M121.17,28l-2,1.09L117,28.5c-7.17-1.88-11.79-2.93-16.46-.73C97.4,29.26,87,35.54,87,53.48c0,16,13.41,34.13,25.18,34.13a9.06,9.06,0,0,0,3.45-.63l2.48-1.12,2.52,1.24c1.56.83,4.66,2.06,6.33,2.06,1.36,0,11-2.83,14.27-11.46L109.65,52.82l37.18-3.66a24.39,24.39,0,0,0,.2-3c0-13.3-11.33-19.4-14.9-20.39C128.29,24.69,122.8,27.06,121.17,28Z" fill="#ef3e42"></path></svg> 